<mxfile host="app.diagrams.net" agent="Mozilla/5.0 (Windows NT 10.0; Win64; x64) AppleWebKit/537.36 (KHTML, like Gecko) Chrome/131.0.0.0 Safari/537.36" version="25.0.3">
  <diagram name="PÃ¡gina-1" id="grdr_7HvGvqQoaEsf2qa">
    <mxGraphModel dx="876" dy="606" grid="1" gridSize="10" guides="1" tooltips="1" connect="1" arrows="1" fold="1" page="1" pageScale="1" pageWidth="827" pageHeight="1169" math="0" shadow="0">
      <root>
        <mxCell id="0" />
        <mxCell id="1" parent="0" />
        <mxCell id="M8d3oaQKBXSsqJuxjc2O-1" value="" style="swimlane;startSize=0;" vertex="1" parent="1">
          <mxGeometry width="840" height="80" as="geometry" />
        </mxCell>
        <mxCell id="M8d3oaQKBXSsqJuxjc2O-2" value="" style="swimlane;startSize=0;" vertex="1" parent="1">
          <mxGeometry width="840" height="80" as="geometry" />
        </mxCell>
        <mxCell id="M8d3oaQKBXSsqJuxjc2O-3" value="" style="swimlane;startSize=0;" vertex="1" parent="1">
          <mxGeometry y="560" width="840" height="80" as="geometry" />
        </mxCell>
        <mxCell id="M8d3oaQKBXSsqJuxjc2O-4" value="" style="swimlane;startSize=0;" vertex="1" parent="1">
          <mxGeometry y="100" width="840" height="460" as="geometry" />
        </mxCell>
        <mxCell id="M8d3oaQKBXSsqJuxjc2O-5" value="" style="swimlane;startSize=0;" vertex="1" parent="M8d3oaQKBXSsqJuxjc2O-4">
          <mxGeometry y="-20" width="840" height="20" as="geometry" />
        </mxCell>
        <mxCell id="M8d3oaQKBXSsqJuxjc2O-6" value="" style="swimlane;startSize=0;" vertex="1" parent="M8d3oaQKBXSsqJuxjc2O-4">
          <mxGeometry x="20" y="60" width="200" height="240" as="geometry" />
        </mxCell>
        <mxCell id="M8d3oaQKBXSsqJuxjc2O-7" value="" style="rounded=0;whiteSpace=wrap;html=1;" vertex="1" parent="M8d3oaQKBXSsqJuxjc2O-6">
          <mxGeometry x="-10" y="10" width="190" height="60" as="geometry" />
        </mxCell>
        <mxCell id="M8d3oaQKBXSsqJuxjc2O-8" value="" style="swimlane;startSize=0;" vertex="1" parent="M8d3oaQKBXSsqJuxjc2O-4">
          <mxGeometry x="627" y="220" width="200" height="200" as="geometry" />
        </mxCell>
        <mxCell id="M8d3oaQKBXSsqJuxjc2O-9" value="" style="rounded=0;whiteSpace=wrap;html=1;" vertex="1" parent="M8d3oaQKBXSsqJuxjc2O-8">
          <mxGeometry x="-7" y="10" width="187" height="60" as="geometry" />
        </mxCell>
      </root>
    </mxGraphModel>
  </diagram>
</mxfile>
